<?xml version="1.0" encoding="iso-8859-1"?>
<!-- Generator: Adobe Illustrator 16.0.0, SVG Export Plug-In . SVG Version: 6.00 Build 0)  -->
<!DOCTYPE svg PUBLIC "-//W3C//DTD SVG 1.1//EN" "http://www.w3.org/Graphics/SVG/1.1/DTD/svg11.dtd">
<svg version="1.1" id="Capa_1" xmlns="http://www.w3.org/2000/svg" xmlns:xlink="http://www.w3.org/1999/xlink" x="0px" y="0px"
	 width="572.744px" height="572.744px" viewBox="0 0 572.744 572.744" style="enable-background:new 0 0 572.744 572.744;"
	 xml:space="preserve">
<g>
	<g>
		<path d="M415.481,399.788c10.253,0.298,17.52,8.254,24.293,15.059c6.503,6.532,13.26,12.697,21.681,16.631
			c11.828,5.523,22.183-12.036,10.286-17.598c-13.868-6.479-22.701-19.054-34.509-27.1c2.121-2.357,4.084-5.047,5.817-8.204
			c6.324-11.526-11.272-21.808-17.597-10.286c-3.272,5.965-8.258,9.612-14.182,11.84c-0.05,0.021-0.103,0.037-0.155,0.058
			c-16.051,5.94-38.973,1.456-53.962,3.595c-0.074,0.012-0.144,0.028-0.217,0.036c10.682-6.568,22.461-11.827,32.607-16.605
			c26.516-12.484,52.493-29.641,60.931-59.335c3.599-12.669-16.062-18.038-19.649-5.419c-3.97,13.966-13.035,24.036-24.234,32.065
			c0.313-11.697-0.596-23.439,8.241-32.8c9.013-9.547-5.373-23.982-14.411-14.41c-7.172,7.597-11.819,16.189-13.439,26.564
			c-1.591,10.172,2.624,22.318-2.651,31.567c-0.47,0.82-0.779,1.632-1.012,2.432c-9.205,4.459-18.544,8.47-26.904,12.718
			c-6.968,3.537-13.835,7.812-20.191,12.726c10.522-32.216,20.058-66.733,48.356-86.66c29.262-20.604,67.76-20.714,93.958-47.062
			c9.27-9.327-5.137-23.737-14.411-14.41c-9.314,9.368-20.628,15.504-32.656,20.539c4.501-8.372,6.695-17.862,8.364-27.646
			c2.191-12.848-17.446-18.352-19.649-5.418c-2.301,13.493-4.581,25.908-16.801,33.848c-25.215,16.394-48.34,33.362-63.232,60.278
			c-5.312,9.601-9.449,19.801-13.174,30.103c-2.705,7.475-10.71,21.975-9.939,29.809c-0.607-6.186-1.473-12.236-2.027-18.197
			c-0.008-0.27-0.037-0.538-0.069-0.815c-1.04-11.792-0.714-23.276,5.598-34.896c16.703-30.747,50.914-47.826,51.645-86.61
			c0.249-13.15-20.131-13.125-20.375,0c-0.421,22.293-16.528,38.111-31.494,54.497c-0.53-2.195-1.248-4.37-2.239-6.5
			c-3.351-7.209-8.34-13.235-10.715-20.906c-2.546-8.226-1.321-17.822-0.779-26.251c0.845-13.125-19.534-13.043-20.375,0
			c-0.951,14.745-0.51,28.087,5.365,41.792c2.603,6.075,7.095,10.686,9.094,17.128c1.894,6.104-0.114,13.525-2.366,20.135
			c-6.308-4.704-14.027-8.115-22.134-10.204c-29.074-7.495-59.527-10.367-73.681-41.122c-5.488-11.926-23.048-1.567-17.597,10.286
			c2.281,4.957,5.116,9.535,8.38,13.745c-1.587-0.089-3.174-0.179-4.761-0.269c-11.6-0.661-18.638-3.391-22.493-15.027
			c-5.341-16.12-4.288-31.955-17.005-44.908c-9.217-9.388-23.619,5.026-14.411,14.411c7.454,7.597,8.185,18.715,10.024,28.707
			c1.889,10.257,5.908,19.511,13.048,27.144c5.859,6.259,15.39,8.715,23.579,9.482c12.823,1.203,25.741,1.669,38.604,2.366
			c2.921,1.534,5.929,2.934,9.009,4.157c10.943,4.342,22.097,6.92,33.656,9.013c9.539,1.73,27.568,5.239,30.583,16.369
			c-11.934-0.95-25.663,4.464-36.43,8.735c-8.376,3.325-17.132,5.189-25.949,5.77c-0.958-0.686-2.068-1.266-3.431-1.624
			c-7.47-1.979-11.983-7.944-16.919-13.493c-5.945-6.679-12.709-12.224-20.082-17.241c-7.328-4.986-15.834-8.323-24.223-11.037
			c-8.246-2.668-18.801-4.165-24.37-11.559c-7.801-10.355-25.508-0.22-17.593,10.286c12.444,16.52,31.338,17.327,48.813,25.802
			c6.063,2.941,11.15,7.233,15.949,11.885c-3.566-1.461-7.059-3.104-10.433-4.981c-11.498-6.386-21.771,11.216-10.286,17.593
			c18.438,10.241,38.47,15.178,59.552,14.876c10.334-0.147,20.73-2.261,30.571-5.279c7.776-2.383,28.895-15.565,36.557-7.626
			c0.298,2.771,0.641,5.553,1.02,8.368c2.285,16.937,2.146,33.627-0.579,50.273c-11.771-12.677-30.302-18.653-47.238-22.994
			c-27.042-6.929-57.21-9.331-79.931-27.153c-10.212-8.013-24.741,6.304-14.411,14.411c8.478,6.65,17.523,11.665,27.005,15.639
			c-9.176,4.288-17.52,7.042-29.005,4.806c-12.835-2.501-18.307,17.137-5.418,19.649c11.167,2.175,21.689,1.963,32.705-0.963
			c5.79-1.538,11.293-4.545,16.353-7.649c6.801-4.17,13.023-4.247,20.767-3.855c1.297,0.064,2.432-0.123,3.472-0.429
			c20.506,4.479,59.36,7.858,66.173,31.849c0.465,1.632,1.204,2.954,2.122,4.006l-5.096,132.556h48.396l-5.096-139.246
			c0-0.809-0.069-1.567-0.155-2.317c0.702-0.727,1.358-1.567,1.89-2.652c4.459-9.106,10.689-14.708,18.001-18.209
			c13.431,3.685,20.502,12.595,30.298,23.109c8.396,9.013,19.779,15.096,31.648,17.939c12.774,3.06,18.192-16.589,5.418-19.649
			c-15.418-3.692-23.541-14.015-33.619-25.275c-0.641-0.714-1.351-1.362-2.036-2.036c12.407-0.465,25.243-0.216,36.7-2.885
			C414.642,399.686,415.037,399.775,415.481,399.788z"/>
		<path d="M115.969,326.756c-27.356,0-27.356,42.424,0,42.424C143.325,369.176,143.325,326.756,115.969,326.756z"/>
		<path d="M99,280.089c27.356,0,27.356-42.424,0-42.424C71.64,237.669,71.64,280.089,99,280.089z"/>
		<path d="M73.545,288.575c-27.356,0-27.356,42.424,0,42.424S100.901,288.575,73.545,288.575z"/>
		<path d="M196.569,193.124c-27.356,0-27.356,42.424,0,42.424S223.926,193.124,196.569,193.124z"/>
		<path d="M109.604,218.579c27.356,0,27.356-42.424,0-42.424S82.248,218.579,109.604,218.579z"/>
		<path d="M158.389,184.641c27.356,0,27.356-42.424,0-42.424S131.032,184.641,158.389,184.641z"/>
		<path d="M228.385,144.339c-27.356,0-27.356,42.424,0,42.424C255.746,186.763,255.746,144.339,228.385,144.339z"/>
		<path d="M249.597,265.242c27.356,0,27.356-42.424,0-42.424C222.241,222.822,222.241,265.242,249.597,265.242z"/>
		<path d="M287.778,203.731c27.355,0,27.355-42.424,0-42.424C260.421,161.308,260.421,203.731,287.778,203.731z"/>
		<path d="M196.569,95.555c-27.356,0-27.356,42.424,0,42.424S223.926,95.555,196.569,95.555z"/>
		<path d="M270.809,99.793c-27.356,0-27.356,42.424,0,42.424C298.165,142.217,298.165,99.793,270.809,99.793z"/>
		<path d="M118.086,140.096c27.356,0,27.356-42.424,0-42.424S90.73,140.096,118.086,140.096z"/>
		<path d="M45.968,241.912c27.356,0,27.356-42.424,0-42.424S18.612,241.912,45.968,241.912z"/>
		<path d="M62.941,129.492c-27.356,0-27.356,42.424,0,42.424C90.297,171.912,90.297,129.492,62.941,129.492z"/>
		<path d="M209.299,460.384c27.356,0,27.356-42.424,0-42.424C181.938,417.964,181.938,460.384,209.299,460.384z"/>
		<path d="M135.059,477.356c27.356,0,27.356-42.424,0-42.424C107.699,434.933,107.699,477.356,135.059,477.356z"/>
		<path d="M94.757,430.689c27.356,0,27.356-42.424,0-42.424S67.4,430.689,94.757,430.689z"/>
		<path d="M45.968,390.388c27.356,0,27.356-42.424,0-42.424S18.612,390.388,45.968,390.388z"/>
		<path d="M345.049,193.124c27.356,0,27.356-42.424,0-42.424S317.692,193.124,345.049,193.124z"/>
		<path d="M20.517,305.544c27.356,0,27.356-42.424,0-42.424S-6.839,305.544,20.517,305.544z"/>
		<path d="M328.08,95.555c-27.356,0-27.356,42.424,0,42.424C355.437,137.974,355.437,95.555,328.08,95.555z"/>
		<path d="M234.75,95.555c27.356,0,27.356-42.424,0-42.424S207.394,95.555,234.75,95.555z"/>
		<path d="M402.319,114.645c-27.356,0-27.356,42.424,0,42.424C429.676,157.064,429.676,114.645,402.319,114.645z"/>
		<path d="M391.712,214.335c27.356,0,27.356-42.424,0-42.424S364.355,214.335,391.712,214.335z"/>
		<path d="M457.469,197.367c27.356,0,27.356-42.424,0-42.424S430.112,197.367,457.469,197.367z"/>
		<path d="M514.74,280.089c27.356,0,27.356-42.424,0-42.424C487.384,237.669,487.384,280.089,514.74,280.089z"/>
		<path d="M499.893,335.238c27.356,0,27.356-42.424,0-42.424C472.532,292.818,472.532,335.238,499.893,335.238z"/>
		<path d="M478.681,347.968c-27.356,0-27.356,42.424,0,42.424C506.037,390.388,506.037,347.968,478.681,347.968z"/>
		<path d="M544.435,347.968c-27.356,0-27.356,42.424,0,42.424C571.79,390.388,571.79,347.968,544.435,347.968z"/>
		<path d="M552.227,284.332c-27.356,0-27.356,42.424,0,42.424S579.583,284.332,552.227,284.332z"/>
		<path d="M511.19,451.901c27.356,0,27.356-42.424,0-42.424S483.834,451.901,511.19,451.901z"/>
		<path d="M458.162,498.564c27.356,0,27.356-42.424,0-42.424C430.806,456.145,430.806,498.564,458.162,498.564z"/>
		<path d="M518.979,212.214c27.356,0,27.356-42.424,0-42.424C491.623,169.79,491.623,212.214,518.979,212.214z"/>
		<path d="M455.348,89.189c-27.356,0-27.356,42.424,0,42.424S482.704,89.189,455.348,89.189z"/>
		<path d="M387.473,51.009c-27.356,0-27.356,42.424,0,42.424S414.829,51.009,387.473,51.009z"/>
		<path d="M315.354,29.797c-27.356,0-27.356,42.424,0,42.424S342.711,29.797,315.354,29.797z"/>
		<path d="M158.389,38.283c-27.356,0-27.356,42.424,0,42.424S185.745,38.283,158.389,38.283z"/>
		<path d="M263.424,1.902c-27.356,0-27.356,42.424,0,42.424C290.78,44.326,290.78,1.902,263.424,1.902z"/>
		<path d="M518.979,146.46c27.356,0,27.356-42.424,0-42.424C491.623,104.037,491.623,146.46,518.979,146.46z"/>
	</g>
</g>
<g>
</g>
<g>
</g>
<g>
</g>
<g>
</g>
<g>
</g>
<g>
</g>
<g>
</g>
<g>
</g>
<g>
</g>
<g>
</g>
<g>
</g>
<g>
</g>
<g>
</g>
<g>
</g>
<g>
</g>
</svg>
